<svg xmlns="http://www.w3.org/2000/svg" xmlns:xlink="http://www.w3.org/1999/xlink" width="500" zoomAndPan="magnify" viewBox="0 0 375 374.999991" height="500" preserveAspectRatio="xMidYMid meet" version="1.0"><defs><g/><clipPath id="4ddc297c80"><path d="M 50 170.652344 L 99 170.652344 L 99 224.652344 L 50 224.652344 Z M 50 170.652344 " clip-rule="nonzero"/></clipPath></defs><g clip-path="url(#4ddc297c80)"><path fill="#ffffff" d="M 74.585938 224.90625 C 93.410156 215.171875 102.011719 195.566406 97.273438 175.035156 C 88.695312 177.496094 81.574219 176.214844 74.585938 170.664062 C 67.589844 176.21875 60.480469 177.5 51.894531 175.035156 C 47.15625 195.566406 55.761719 215.171875 74.585938 224.90625 M 87.996094 184.746094 C 83.171875 184.472656 78.867188 183.179688 74.585938 180.957031 C 70.304688 183.179688 66 184.472656 61.179688 184.746094 C 61.21875 182.5625 61.433594 180.390625 61.816406 178.242188 C 66.4375 177.804688 70.855469 176.105469 74.585938 173.339844 C 78.316406 176.109375 82.742188 177.808594 87.363281 178.246094 C 87.746094 180.390625 87.957031 182.566406 87.996094 184.746094 Z M 58.492188 207.183594 C 53.203125 198.308594 51.402344 187.796875 53.46875 177.65625 C 55.515625 178.148438 57.59375 178.378906 59.65625 178.359375 C 58.289062 186.539062 59.175781 194.644531 63.015625 202.050781 C 63.089844 202.195312 63.164062 202.339844 63.242188 202.484375 C 63.8125 202.027344 64.34375 201.527344 64.832031 200.980469 C 62.558594 196.550781 61.355469 191.8125 61.195312 186.851562 C 65.464844 186.625 69.640625 185.605469 73.527344 183.828125 C 73.53125 194.1875 68.09375 203.078125 58.492188 207.183594 Z M 80.65625 218.574219 C 78.777344 220.046875 76.75 221.375 74.585938 222.53125 C 72.417969 221.375 70.394531 220.046875 68.511719 218.574219 C 70.625 217.558594 72.65625 216.378906 74.582031 215.042969 L 74.585938 215.042969 C 76.515625 216.378906 78.542969 217.558594 80.65625 218.574219 Z M 74.585938 212.457031 C 71.941406 210.507812 69.640625 208.199219 67.722656 205.625 C 67.210938 206.109375 66.671875 206.558594 66.105469 206.976562 C 67.988281 209.492188 70.226562 211.773438 72.773438 213.730469 C 70.855469 215.007812 68.824219 216.136719 66.722656 217.085938 C 63.992188 214.6875 61.617188 211.957031 59.628906 208.984375 C 66.867188 205.785156 72.332031 199.558594 74.585938 191.988281 C 75.835938 196.203125 78.109375 200.054688 81.183594 203.191406 C 81.617188 202.617188 82.011719 202.015625 82.371094 201.390625 C 77.679688 196.421875 75.640625 190.660156 75.640625 183.828125 C 79.53125 185.605469 83.707031 186.628906 87.976562 186.851562 C 87.632812 197.003906 82.804688 206.398438 74.585938 212.457031 Z M 89.523438 178.359375 C 91.585938 178.375 93.660156 178.148438 95.699219 177.65625 C 97.765625 187.796875 95.964844 198.3125 90.675781 207.183594 C 89.113281 206.515625 87.640625 205.699219 86.277344 204.75 C 85.925781 205.359375 85.550781 205.953125 85.15625 206.535156 C 86.523438 207.476562 87.988281 208.300781 89.539062 208.984375 C 87.554688 211.957031 85.175781 214.6875 82.445312 217.085938 C 80.34375 216.136719 78.316406 215.007812 76.394531 213.730469 C 87.507812 205.1875 91.773438 191.890625 89.523438 178.359375 Z M 89.523438 178.359375 " fill-opacity="1" fill-rule="evenodd"/></g><g fill="#ffffff" fill-opacity="1"><g transform="translate(129.356129, 210.165397)"><g><path d="M 2.671875 0 L 2.671875 -25.203125 L 5.6875 -25.203125 L 5.6875 -14.078125 L 18.765625 -14.078125 L 18.765625 -25.203125 L 21.796875 -25.203125 L 21.796875 0 L 18.765625 0 L 18.765625 -11.59375 L 5.6875 -11.59375 L 5.6875 0 Z M 2.671875 0 "/></g></g></g><g fill="#ffffff" fill-opacity="1"><g transform="translate(153.808066, 210.165397)"><g><path d="M 8.421875 0.4375 C 6.929688 0.4375 5.691406 0.1875 4.703125 -0.3125 C 3.722656 -0.820312 2.992188 -1.492188 2.515625 -2.328125 C 2.035156 -3.171875 1.796875 -4.085938 1.796875 -5.078125 C 1.796875 -6.898438 2.492188 -8.300781 3.890625 -9.28125 C 5.285156 -10.269531 7.179688 -10.765625 9.578125 -10.765625 L 14.40625 -10.765625 L 14.40625 -10.984375 C 14.40625 -12.546875 13.992188 -13.726562 13.171875 -14.53125 C 12.359375 -15.332031 11.269531 -15.734375 9.90625 -15.734375 C 8.726562 -15.734375 7.710938 -15.4375 6.859375 -14.84375 C 6.003906 -14.257812 5.472656 -13.40625 5.265625 -12.28125 L 2.15625 -12.28125 C 2.28125 -13.570312 2.71875 -14.660156 3.46875 -15.546875 C 4.226562 -16.441406 5.171875 -17.125 6.296875 -17.59375 C 7.429688 -18.0625 8.632812 -18.296875 9.90625 -18.296875 C 12.40625 -18.296875 14.285156 -17.628906 15.546875 -16.296875 C 16.804688 -14.960938 17.4375 -13.191406 17.4375 -10.984375 L 17.4375 0 L 14.734375 0 L 14.546875 -3.203125 C 14.046875 -2.191406 13.304688 -1.332031 12.328125 -0.625 C 11.359375 0.0820312 10.054688 0.4375 8.421875 0.4375 Z M 8.890625 -2.125 C 10.046875 -2.125 11.035156 -2.421875 11.859375 -3.015625 C 12.691406 -3.617188 13.320312 -4.398438 13.75 -5.359375 C 14.1875 -6.328125 14.40625 -7.335938 14.40625 -8.390625 L 14.40625 -8.421875 L 9.828125 -8.421875 C 8.054688 -8.421875 6.800781 -8.113281 6.0625 -7.5 C 5.332031 -6.894531 4.96875 -6.132812 4.96875 -5.21875 C 4.96875 -4.28125 5.304688 -3.53125 5.984375 -2.96875 C 6.671875 -2.40625 7.640625 -2.125 8.890625 -2.125 Z M 8.890625 -2.125 "/></g></g></g><g fill="#ffffff" fill-opacity="1"><g transform="translate(173.290394, 210.165397)"><g><path d="M 10.703125 0.4375 C 8.992188 0.4375 7.457031 0.046875 6.09375 -0.734375 C 4.738281 -1.515625 3.671875 -2.609375 2.890625 -4.015625 C 2.117188 -5.421875 1.734375 -7.0625 1.734375 -8.9375 C 1.734375 -10.800781 2.117188 -12.4375 2.890625 -13.84375 C 3.671875 -15.25 4.738281 -16.34375 6.09375 -17.125 C 7.457031 -17.90625 8.992188 -18.296875 10.703125 -18.296875 C 12.804688 -18.296875 14.582031 -17.742188 16.03125 -16.640625 C 17.488281 -15.535156 18.410156 -14.054688 18.796875 -12.203125 L 15.703125 -12.203125 C 15.460938 -13.304688 14.875 -14.164062 13.9375 -14.78125 C 13 -15.394531 11.90625 -15.703125 10.65625 -15.703125 C 9.644531 -15.703125 8.695312 -15.445312 7.8125 -14.9375 C 6.925781 -14.4375 6.207031 -13.679688 5.65625 -12.671875 C 5.101562 -11.671875 4.828125 -10.425781 4.828125 -8.9375 C 4.828125 -7.445312 5.101562 -6.195312 5.65625 -5.1875 C 6.207031 -4.175781 6.925781 -3.410156 7.8125 -2.890625 C 8.695312 -2.378906 9.644531 -2.125 10.65625 -2.125 C 11.90625 -2.125 13 -2.429688 13.9375 -3.046875 C 14.875 -3.660156 15.460938 -4.53125 15.703125 -5.65625 L 18.796875 -5.65625 C 18.441406 -3.851562 17.53125 -2.382812 16.0625 -1.25 C 14.59375 -0.125 12.804688 0.4375 10.703125 0.4375 Z M 10.703125 0.4375 "/></g></g></g><g fill="#ffffff" fill-opacity="1"><g transform="translate(193.817065, 210.165397)"><g><path d="M 2.484375 0 L 2.484375 -25.9375 L 5.515625 -25.9375 L 5.515625 -10.34375 L 12.828125 -17.859375 L 16.53125 -17.859375 L 8.609375 -9.796875 L 17.546875 0 L 13.6875 0 L 5.515625 -9.25 L 5.515625 0 Z M 2.484375 0 "/></g></g></g><g fill="#ffffff" fill-opacity="1"><g transform="translate(211.966959, 210.165397)"><g><path d="M 2.125 -9.1875 L 2.125 -11.734375 L 16.390625 -11.734375 L 16.390625 -9.1875 Z M 2.125 -9.1875 "/></g></g></g><g fill="#ffffff" fill-opacity="1"><g transform="translate(230.440961, 210.165397)"><g><path d="M 2.671875 0 L 2.671875 -25.203125 L 10.796875 -25.203125 C 12.773438 -25.203125 14.382812 -24.878906 15.625 -24.234375 C 16.875 -23.585938 17.796875 -22.695312 18.390625 -21.5625 C 18.992188 -20.4375 19.296875 -19.191406 19.296875 -17.828125 C 19.296875 -16.242188 18.867188 -14.816406 18.015625 -13.546875 C 17.171875 -12.273438 15.847656 -11.375 14.046875 -10.84375 L 19.5625 0 L 15.984375 0 L 10.875 -10.40625 L 5.6875 -10.40625 L 5.6875 0 Z M 5.6875 -12.78125 L 10.59375 -12.78125 C 12.53125 -12.78125 13.941406 -13.25 14.828125 -14.1875 C 15.722656 -15.125 16.171875 -16.328125 16.171875 -17.796875 C 16.171875 -19.285156 15.734375 -20.46875 14.859375 -21.34375 C 13.984375 -22.21875 12.546875 -22.65625 10.546875 -22.65625 L 5.6875 -22.65625 Z M 5.6875 -12.78125 "/></g></g></g><g fill="#ffffff" fill-opacity="1"><g transform="translate(251.795898, 210.165397)"><g><path d="M 10.515625 0.4375 C 8.804688 0.4375 7.289062 0.046875 5.96875 -0.734375 C 4.65625 -1.515625 3.617188 -2.601562 2.859375 -4 C 2.109375 -5.394531 1.734375 -7.039062 1.734375 -8.9375 C 1.734375 -10.800781 2.101562 -12.4375 2.84375 -13.84375 C 3.59375 -15.25 4.628906 -16.34375 5.953125 -17.125 C 7.285156 -17.90625 8.832031 -18.296875 10.59375 -18.296875 C 12.320312 -18.296875 13.816406 -17.90625 15.078125 -17.125 C 16.335938 -16.34375 17.300781 -15.316406 17.96875 -14.046875 C 18.644531 -12.773438 18.984375 -11.40625 18.984375 -9.9375 C 18.984375 -9.675781 18.972656 -9.410156 18.953125 -9.140625 C 18.941406 -8.878906 18.9375 -8.582031 18.9375 -8.25 L 4.71875 -8.25 C 4.789062 -6.875 5.109375 -5.738281 5.671875 -4.84375 C 6.234375 -3.945312 6.941406 -3.269531 7.796875 -2.8125 C 8.648438 -2.351562 9.554688 -2.125 10.515625 -2.125 C 11.765625 -2.125 12.804688 -2.410156 13.640625 -2.984375 C 14.484375 -3.566406 15.097656 -4.347656 15.484375 -5.328125 L 18.46875 -5.328125 C 17.988281 -3.671875 17.070312 -2.296875 15.71875 -1.203125 C 14.363281 -0.109375 12.628906 0.4375 10.515625 0.4375 Z M 10.515625 -15.734375 C 9.078125 -15.734375 7.796875 -15.296875 6.671875 -14.421875 C 5.554688 -13.546875 4.914062 -12.269531 4.75 -10.59375 L 15.984375 -10.59375 C 15.921875 -12.195312 15.367188 -13.453125 14.328125 -14.359375 C 13.296875 -15.273438 12.023438 -15.734375 10.515625 -15.734375 Z M 10.515625 -15.734375 "/></g></g></g><g fill="#ffffff" fill-opacity="1"><g transform="translate(272.286554, 210.165397)"><g><path d="M 12.03125 0.4375 C 10.5625 0.4375 9.253906 0.132812 8.109375 -0.46875 C 6.972656 -1.070312 6.109375 -1.910156 5.515625 -2.984375 L 5.21875 0 L 2.484375 0 L 2.484375 -25.9375 L 5.515625 -25.9375 L 5.515625 -14.90625 C 6.085938 -15.769531 6.90625 -16.550781 7.96875 -17.25 C 9.039062 -17.945312 10.40625 -18.296875 12.0625 -18.296875 C 13.84375 -18.296875 15.390625 -17.882812 16.703125 -17.0625 C 18.023438 -16.25 19.050781 -15.132812 19.78125 -13.71875 C 20.519531 -12.300781 20.890625 -10.691406 20.890625 -8.890625 C 20.890625 -7.085938 20.519531 -5.484375 19.78125 -4.078125 C 19.050781 -2.679688 18.019531 -1.578125 16.6875 -0.765625 C 15.351562 0.0351562 13.800781 0.4375 12.03125 0.4375 Z M 11.703125 -2.203125 C 12.898438 -2.203125 13.957031 -2.484375 14.875 -3.046875 C 15.789062 -3.609375 16.507812 -4.394531 17.03125 -5.40625 C 17.5625 -6.414062 17.828125 -7.59375 17.828125 -8.9375 C 17.828125 -10.28125 17.5625 -11.453125 17.03125 -12.453125 C 16.507812 -13.460938 15.789062 -14.25 14.875 -14.8125 C 13.957031 -15.382812 12.898438 -15.671875 11.703125 -15.671875 C 10.503906 -15.671875 9.445312 -15.382812 8.53125 -14.8125 C 7.625 -14.25 6.90625 -13.460938 6.375 -12.453125 C 5.84375 -11.453125 5.578125 -10.28125 5.578125 -8.9375 C 5.578125 -7.59375 5.84375 -6.414062 6.375 -5.40625 C 6.90625 -4.394531 7.625 -3.609375 8.53125 -3.046875 C 9.445312 -2.484375 10.503906 -2.203125 11.703125 -2.203125 Z M 11.703125 -2.203125 "/></g></g></g><g fill="#ffffff" fill-opacity="1"><g transform="translate(294.901897, 210.165397)"><g><path d="M 10.515625 0.4375 C 8.804688 0.4375 7.289062 0.046875 5.96875 -0.734375 C 4.65625 -1.515625 3.617188 -2.601562 2.859375 -4 C 2.109375 -5.394531 1.734375 -7.039062 1.734375 -8.9375 C 1.734375 -10.800781 2.101562 -12.4375 2.84375 -13.84375 C 3.59375 -15.25 4.628906 -16.34375 5.953125 -17.125 C 7.285156 -17.90625 8.832031 -18.296875 10.59375 -18.296875 C 12.320312 -18.296875 13.816406 -17.90625 15.078125 -17.125 C 16.335938 -16.34375 17.300781 -15.316406 17.96875 -14.046875 C 18.644531 -12.773438 18.984375 -11.40625 18.984375 -9.9375 C 18.984375 -9.675781 18.972656 -9.410156 18.953125 -9.140625 C 18.941406 -8.878906 18.9375 -8.582031 18.9375 -8.25 L 4.71875 -8.25 C 4.789062 -6.875 5.109375 -5.738281 5.671875 -4.84375 C 6.234375 -3.945312 6.941406 -3.269531 7.796875 -2.8125 C 8.648438 -2.351562 9.554688 -2.125 10.515625 -2.125 C 11.765625 -2.125 12.804688 -2.410156 13.640625 -2.984375 C 14.484375 -3.566406 15.097656 -4.347656 15.484375 -5.328125 L 18.46875 -5.328125 C 17.988281 -3.671875 17.070312 -2.296875 15.71875 -1.203125 C 14.363281 -0.109375 12.628906 0.4375 10.515625 0.4375 Z M 10.515625 -15.734375 C 9.078125 -15.734375 7.796875 -15.296875 6.671875 -14.421875 C 5.554688 -13.546875 4.914062 -12.269531 4.75 -10.59375 L 15.984375 -10.59375 C 15.921875 -12.195312 15.367188 -13.453125 14.328125 -14.359375 C 13.296875 -15.273438 12.023438 -15.734375 10.515625 -15.734375 Z M 10.515625 -15.734375 "/></g></g></g><g fill="#ffffff" fill-opacity="1"><g transform="translate(315.392554, 210.165397)"><g><path d="M 2.484375 0 L 2.484375 -25.9375 L 5.515625 -25.9375 L 5.515625 0 Z M 2.484375 0 "/></g></g></g><g fill="#ffffff" fill-opacity="1"><g transform="translate(323.387167, 210.165397)"><g><path d="M 9.328125 0.4375 C 7.191406 0.4375 5.414062 -0.101562 4 -1.1875 C 2.582031 -2.269531 1.753906 -3.734375 1.515625 -5.578125 L 4.609375 -5.578125 C 4.796875 -4.640625 5.289062 -3.828125 6.09375 -3.140625 C 6.90625 -2.460938 7.992188 -2.125 9.359375 -2.125 C 10.628906 -2.125 11.566406 -2.394531 12.171875 -2.9375 C 12.773438 -3.476562 13.078125 -4.117188 13.078125 -4.859375 C 13.078125 -5.941406 12.6875 -6.660156 11.90625 -7.015625 C 11.125 -7.378906 10.023438 -7.707031 8.609375 -8 C 7.648438 -8.1875 6.6875 -8.457031 5.71875 -8.8125 C 4.757812 -9.175781 3.957031 -9.6875 3.3125 -10.34375 C 2.664062 -11.007812 2.34375 -11.882812 2.34375 -12.96875 C 2.34375 -14.53125 2.921875 -15.804688 4.078125 -16.796875 C 5.242188 -17.796875 6.828125 -18.296875 8.828125 -18.296875 C 10.722656 -18.296875 12.273438 -17.820312 13.484375 -16.875 C 14.703125 -15.925781 15.40625 -14.578125 15.59375 -12.828125 L 12.609375 -12.828125 C 12.484375 -13.734375 12.085938 -14.441406 11.421875 -14.953125 C 10.765625 -15.472656 9.882812 -15.734375 8.78125 -15.734375 C 7.707031 -15.734375 6.875 -15.503906 6.28125 -15.046875 C 5.695312 -14.597656 5.40625 -14 5.40625 -13.25 C 5.40625 -12.53125 5.78125 -11.96875 6.53125 -11.5625 C 7.289062 -11.15625 8.316406 -10.804688 9.609375 -10.515625 C 10.710938 -10.273438 11.765625 -9.976562 12.765625 -9.625 C 13.765625 -9.28125 14.582031 -8.765625 15.21875 -8.078125 C 15.851562 -7.398438 16.171875 -6.410156 16.171875 -5.109375 C 16.191406 -3.503906 15.582031 -2.175781 14.34375 -1.125 C 13.113281 -0.0820312 11.441406 0.4375 9.328125 0.4375 Z M 9.328125 0.4375 "/></g></g></g><path stroke-linecap="butt" transform="matrix(0.000000001309, 0.75, -0.75, 0.000000001309, 114.386284, 163.184932)" fill="none" stroke-linejoin="miter" d="M -0.00178391 0.499421 L 92.295097 0.499421 " stroke="#a6a6a6" stroke-width="1" stroke-opacity="1" stroke-miterlimit="4"/></svg>